<?xml version="1.0" encoding="UTF-8"?><svg xmlns="http://www.w3.org/2000/svg" viewBox="0 0 309.97 310.72"><defs><style>.d{fill:#f2e7d5;}</style></defs><g id="a"/><g id="b"><g id="c"><g><path class="d" d="M15.57,176.6c3.56-1.09,7.49-2,11.84-2.71-.68-4.19-1.1-8.49-1.27-12.96H10.49c.62,5.54,2.34,10.85,5.08,15.67Z"/><path class="d" d="M32.67,119.45c-3.78,1.99-7.34,4.56-10.37,7.57-.23,.21-.43,.4-.61,.61,2.38,.58,4.93,1.09,7.68,1.55,.9-3.51,1.96-6.77,3.3-9.73Z"/><path class="d" d="M10.49,151.45h15.65c.17-4.43,.59-8.8,1.27-12.96-4.34-.75-8.28-1.59-11.84-2.68-2.74,4.77-4.46,10.08-5.08,15.63Z"/><path class="d" d="M154.61,0C73.98,0,7.7,61.42,0,140.03c6.89-21.85,27.33-37.76,51.42-37.76,29.73,0,53.92,24.21,53.92,53.94,0,.51-.03,1.05-.03,1.63v.14c-.44,1.09-3.07,9.06-6.71,13.33-3.66,4.3-8.14,7.82-11.14,9.11,0,0-.3-2.07-.58-2.98l.38-.84c2.74-4.82,4.49-10.13,5.11-15.67h-15.68c-.06,1.59-.17,3.15-.28,4.73-1.56-.52-3.08-.71-4.73-.71h-4.78c.12-1.36,.21-2.71,.23-4.03h-31.44c.1,2.84,.32,5.65,.66,8.39-3.11,2.95-4.93,7.07-4.96,11.4v1.96l-2.02,.54c-2.75,.4-5.3,.91-7.68,1.51,.18,.21,.38,.42,.61,.59,2.68,2.74,5.75,5,9.03,6.91l-.05,12.89c0,.33,.05,.7,.05,1.1-14.59-5.87-26.04-17.96-31.06-32.99,8.86,77.38,74.57,137.49,154.33,137.49,85.8,0,155.36-69.56,155.36-155.36S240.41,0,154.61,0ZM81.63,208.45c-3.74,0-7.44-.51-10.96-1.54-3.19-.95-6.2-2.26-9.04-3.96-2.16-1.31-4.18-2.74-6.06-4.39l-6.59,6.73c-1.51,1.48-4.19,.33-4.19-1.77l.06-20.67v-3.73c.02-.72,.39-1.32,.89-1.75,.43-.4,1.03-.64,1.58-.64h11.78l12.54,.06c2.17,0,3.23,2.63,1.73,4.12l-6.52,6.58c4.1,3.31,9.3,5.2,14.79,5.2,13.02,0,23.61-10.01,23.61-23h.1c0,21.63-2,38.75-23.72,38.75Z"/><path class="d" d="M35.7,151.45h31.44c-.11-4.02-.55-8.01-1.13-11.74-9.44,.85-19.7,.85-29.14,0-.61,3.73-1.01,7.72-1.17,11.74Z"/><path class="d" d="M92.38,151.45c-.62-5.55-2.38-10.86-5.11-15.63-3.53,1.09-7.49,1.93-11.78,2.68,.6,4.16,1.04,8.52,1.21,12.96h15.68Z"/><path class="d" d="M61.29,122.9c-1.32-3.12-2.84-5.66-4.41-7.56-3.61-.46-7.28-.46-10.9,0-1.57,1.91-3.12,4.45-4.45,7.56-1,2.26-1.87,4.73-2.62,7.44,8.12,.65,16.92,.65,25.04,0-.74-2.7-1.67-5.17-2.67-7.44Z"/><path class="d" d="M70.21,119.45c1.28,2.97,2.38,6.22,3.29,9.73,2.7-.46,5.28-.97,7.68-1.55-.23-.21-.39-.4-.58-.61-3.11-3.01-6.59-5.59-10.39-7.57Z"/></g></g></g></svg>