<?xml version="1.0" encoding="UTF-8"?><svg xmlns="http://www.w3.org/2000/svg" viewBox="0 0 310.72 310.72"><defs><style>.d{fill:#f2e7d5;}</style></defs><g id="a"/><g id="b"><g id="c"><path class="d" d="M155.36,0C69.56,0,0,69.56,0,155.36c0,3.18,.11,6.33,.29,9.46l21.43-52.73c.94-3.16,3.6-5.69,7.05-6.3,4.89-.9,9.58,2.36,10.46,7.23l12.9,71.2,10.8-33.37c1.9-4.58,7.18-6.75,11.74-4.85,3.13,1.27,4.44,4.56,5.69,7.26l14.78,31.71h21.84v18.03h-26.85c-.09,0-.18,0-.29,0-3.9,.14-7.59-2.3-8.89-6.2l-8.35-17.63-14.27,44.12c-.06,.34-.2,.67-.31,.99v.02c-1.13,2.82-3.6,5.02-6.81,5.59-4.91,.88-9.54-2.35-10.46-7.25l-13.74-75.79L6.69,196.87c-.15,.56-.37,1.1-.62,1.62,18.69,64.82,78.45,112.24,149.29,112.24,85.8,0,155.36-69.56,155.36-155.36S241.17,0,155.36,0Z"/></g></g></svg>