<?xml version="1.0" encoding="UTF-8"?><svg xmlns="http://www.w3.org/2000/svg" viewBox="0 0 309.43 310.72"><defs><style>.d{fill:#f2e7d5;}</style></defs><g id="a"/><g id="b"><g id="c"><path class="d" d="M154.07,0C75.09,0,9.87,58.94,0,135.24c7.97-19.79,27.35-33.77,50.02-33.77,8.71,0,16.95,2.06,24.23,5.77l-3.74,3.73c-1.25,1.28-1.95,2.98-1.95,4.73-5.68-2.63-11.94-4.16-18.53-4.16-24.15,0-43.8,19.66-43.8,43.79s19.64,43.83,43.8,43.83,43.82-19.64,43.82-43.83c0-6.59-1.51-12.92-4.17-18.54,1.75-.03,3.45-.7,4.71-2l3.76-3.75c3.68,7.34,5.8,15.6,5.8,24.29,0,29.78-24.22,53.91-53.92,53.91-22.67,0-42.05-13.99-50.02-33.81,9.85,76.32,75.07,135.28,154.07,135.28,85.8,0,155.36-69.56,155.36-155.36S239.88,0,154.07,0ZM50.02,189.04c-18.6,0-33.71-15.08-33.71-33.7s15.11-33.67,33.71-33.67c5.57,0,10.87,1.42,15.52,3.82l-6.97,7.01c-2.73-1.02-5.58-1.56-8.54-1.56-13.49,0-24.44,10.97-24.44,24.4s10.96,24.47,24.44,24.47,24.35-10.97,24.35-24.47c0-2.97-.53-5.84-1.56-8.53l7-7.03c2.52,4.66,3.88,9.98,3.88,15.56,0,18.62-15.13,33.7-33.67,33.7Zm-5.47-28.02c1.11,1.1,3.06,2.34,6.18,2.34,2.45,0,6.11-.85,8.51-3.18t.05-.11l5.77-5.75c.06,.37,.09,.72,.09,1.02,0,8.39-6.82,15.19-15.13,15.19s-15.18-6.8-15.18-15.19,6.8-15.16,15.18-15.16c.34,0,.7,.05,1.01,.12l-5.72,5.7s-.05,.05-.05,.05c-2.21,2.23-3.15,5.98-3.15,8.77,.02,3.17,1.35,5.14,2.44,6.21Zm45.08-30.96h-9.57l-25.41,25.45c-1.09,1.02-4.49,1.8-5.45,.81-1.04-.98-.23-4.63,.76-5.68l25.32-25.34v-9.54l14.35-14.28,.55,13.77,13.76,.51-14.32,14.31Z"/></g></g></svg>