<?xml version="1.0" encoding="UTF-8"?><svg xmlns="http://www.w3.org/2000/svg" viewBox="0 0 310.72 310.72"><defs><style>.d{fill:#f2e7d5;}</style></defs><g id="a"/><g id="b"><g id="c"><path class="d" d="M155.36,0C69.56,0,0,69.56,0,155.36c0,.27,0,.53,.01,.8H.55c0-27.06,21.92-48.99,48.98-48.99,13.52,0,25.77,5.48,34.63,14.35l-11.1,11.09c-6-6.02-14.32-9.74-23.53-9.74-18.39,0-33.3,14.9-33.3,33.3h8.47c2.47,0,3.05,1.42,1.32,3.17l-7.18,7.16-7.17,7.17c-1.72,1.72-4.57,1.72-6.32,0l-4.75-4.76c6.86,79.47,73.52,141.83,154.77,141.83,85.8,0,155.36-69.56,155.36-155.36S241.17,0,155.36,0Zm-49.37,154.56h-8.19c0,27.05-21.93,49-48.98,49-13.54,0-25.79-5.5-34.65-14.36l11.09-11.09c6.03,6.03,14.35,9.74,23.55,9.74,18.4,0,33.29-14.88,33.29-33.29h-8.48c-2.43,0-3.03-1.41-1.29-3.15l7.17-7.18,7.15-7.15c1.75-1.73,4.58-1.73,6.34,0l7.14,7.15,7.15,7.18c1.75,1.75,1.17,3.15-1.3,3.15Z"/></g></g></svg>