<?xml version="1.0" encoding="UTF-8"?><svg xmlns="http://www.w3.org/2000/svg" viewBox="0 0 310.68 310.72"><defs><style>.d{fill:#f2e7d5;}</style></defs><g id="a"/><g id="b"><g id="c"><path class="d" d="M155.32,0C80.29,0,17.69,53.18,3.15,123.9l6.56,2.43c1.53,.55,2.21,2.28,1.59,3.69L0,158.74c.05,2.31,.15,4.6,.3,6.89,6.32-15.2,13.17-33.27,13.17-33.27-.09,1.09,3.66,2.96,4.46,3.28,1.58,.61,3.35,.8,5.1,.61,3.89-.35,7.67-2.56,11.13-4.38,3.66-1.99,8.62-4,12.31-1.23l-21.95,14.86c-2.8,2.16-4.04,6.11-2.97,9.57,.92,3.14,3.57,5.1,6.89,5.1,2.08,0,4.43-.77,6.98-2.19,1.18-.54,13.28-6.37,20.48-10.28,.08-.05,.23-.08,.4-.17h.03c.06,.09,.29,.17,.63,.52l37.15,39.01c-.24,1.23-.38,2.02-1.22,2.97-2.14,2.25-5.67,2.19-7.78-.18l-13.54-14.55c-1.26-1.44-3.86,1.36-2.4,2.8l11.07,11.61c2.05,2.3,2.19,5.84,.08,8.09-2.13,2.21-5.3,1.87-7.37-.41l-12.7-13.42c-1.19-1.81-3.83,.9-2.16,2.7l9.72,10.6c2.04,2.19,1.9,5.7-.11,7.84-1.64,1.79-3.95,1.88-5.87,.63,1.01-2.86,.58-6.19-1.46-8.56-1.41-1.75-3.48-2.74-5.68-2.74h-.08c1.01-2.73,.7-6.02-1.15-8.39-1.44-1.89-3.61-2.96-5.91-2.96-1.62,0-3.26,.57-4.61,1.61,0-1.88-.57-3.78-1.78-5.3-1.38-1.87-3.57-2.95-5.88-2.95-1.81,0-3.57,.66-5.01,1.88l-5.77,5.07c-.09-1.47-.55-2.97-1.42-4.3l-.15-.09-.05-.18c-1.47-2.02-3.74-3.23-6.11-3.23-1.7,0-3.28,.54-4.59,1.67l-1.23,.86c-5.52-5.35-9.32-9.58-10.59-11.02,5.99,80.33,73.06,143.65,154.92,143.65s155.36-69.56,155.36-155.36S241.12,0,155.32,0ZM19.67,188.28l-1.91,1.42c-2.25,1.81-5.5,1.35-7.14-1.12-1.59-2.37-1.15-5.79,1.16-7.6l1.88-1.47c2.33-1.79,5.51-1.36,7.15,1.13l.11,.17c1.65,2.37,1.04,5.7-1.25,7.46Zm3.05,7.4c-1.79-2.33-1.46-5.79,.7-7.76l8.56-7.32c2.19-1.98,5.41-1.7,7.2,.64,1.76,2.33,1.41,5.77-.78,7.66l-8.53,7.44c-2.16,1.9-5.37,1.67-7.15-.66Zm10,8.65c-1.78-2.33-1.47-5.77,.74-7.75l10.8-9.34c2.24-1.98,5.41-1.67,7.2,.63,1.81,2.34,1.47,5.74-.72,7.73l-10.84,9.46c-2.19,1.92-5.39,1.67-7.17-.73Zm25.35,2.62l-4.67,4.52c-2.08,2.16-5.34,1.95-7.23-.21-1.84-2.3-1.7-5.7,.46-7.81l4.62-4.61c2.14-2.07,5.3-1.99,7.23,.21,1.85,2.24,1.65,5.74-.41,7.9Zm36.33-23.52s-34.06-36.31-35.56-37.38c-1.36-1.5-2.48-1.81-4.13-.92-7.52,4.09-20.38,10.25-20.38,10.25-10.58,6.11-12.74-4-8.19-7.54,3.09-2.53,6.39-4.86,9.65-7.14,4.96-3.32,9.91-6.46,15.07-9.29,4.59-2.47,8.77-4.7,13.98-4,3.54,.46,6.25,2.07,9.46,3.88,2.82,1.52,5.36,3.81,8.47,4.7,3.02,.77,5.22-.54,7.84-1.93,8.96,16.83,18.39,33.71,18.39,33.71-4.03,8.04-14.6,15.67-14.6,15.67Zm29.5-20.71l-8.52,4.73c-1.35,.8-3.12,.21-3.95-1.13l-18.52-33.92c-.78-1.45-.24-3.14,1.09-3.91l8.53-4.76c1.36-.75,3.17-.23,3.93,1.16l18.56,33.94c.78,1.33,.29,3.14-1.13,3.89Z"/></g></g></svg>