<?xml version="1.0" encoding="UTF-8"?><svg xmlns="http://www.w3.org/2000/svg" viewBox="0 0 310.72 310.72"><defs><style>.d{fill:#1b4c6e;}</style></defs><g id="a"/><g id="b"><g id="c"><g><path class="d" d="M45.68,255.2l-14.31-6.24c4.39,5.8,9.17,11.29,14.31,16.42v-10.18Z"/><path class="d" d="M134.03,257.55l-40.41,17.61c-.35,.15-.71,.23-1.08,.23s-.73-.07-1.07-.23l-40.41-17.61v12.96c10.56,9.57,22.45,17.7,35.35,24.1,16.33,1.36,32.92-2.71,47.62-12.23v-24.83Z"/><polygon class="d" points="92.54 223.08 38.98 246.42 92.54 269.76 146.1 246.42 92.54 223.08"/><path class="d" d="M155.36,0C69.56,0,0,69.56,0,155.36c0,34.06,10.97,65.56,29.56,91.17,0-.04,0-.07,0-.11,0-1.07,.64-2.04,1.61-2.46l60.3-26.27c.68-.31,1.46-.31,2.15,0l60.29,26.27c.07,.03,.14,.07,.2,.11,.46-.36,1.03-.59,1.66-.59,1.49,0,2.69,1.2,2.69,2.69v39.47c0,1.49-1.2,2.69-2.69,2.69s-2.69-1.2-2.69-2.69v-36.39l-13.67,5.96v28.63c0,.89-.45,1.73-1.19,2.23-12.28,8.25-25.85,12.91-39.59,13.97,17.58,6.9,36.71,10.69,56.73,10.69,85.8,0,155.36-69.56,155.36-155.36S241.17,0,155.36,0Z"/></g></g></g></svg>