<?xml version="1.0" encoding="UTF-8"?><svg xmlns="http://www.w3.org/2000/svg" viewBox="0 0 310.72 310.72"><defs><style>.d{fill:#1b4c6e;}</style></defs><g id="a"/><g id="b"><g id="c"><g><path class="d" d="M211.31,28.1c7.25,4.39,15.35,3.79,19.9-2.2,1.22-1.61,2-3.21,2.41-4.77-8.79-5.14-18.13-9.43-27.91-12.78-.28,.33-.54,.68-.77,1.05-3.65,5.83-1.98,13.64,6.38,18.7Z"/><path class="d" d="M234.45,28.36c-1.82,2.4-4.14,4.17-6.74,5.27l-.44,2.15c-.17,.84,.13,1.7,.79,2.24l50.29,41.75c1.85,1.54,2.92,3.82,2.92,6.23V246.39c18.53-25.58,29.46-57.03,29.46-91.03,0-55.77-29.39-104.66-73.51-132.07-.6,1.73-1.52,3.43-2.76,5.07Z"/><path class="d" d="M167.51,84.49c-.62,6.85,6.84,14.09,15.26,15.02,7.53,.83,15.65-2.5,15.65-12.28,0-7.52-6.09-12.9-14.52-13.78-9.72-1.02-15.78,4.18-16.39,11.04Z"/><path class="d" d="M276.54,114.15c0-1.86-.21-3.72-.64-5.54-1.28-5.4-4.45-15.79-9.32-17.84-5.69-2.4-50.27-8.23-61.12-9.62-1.3-.17-2.47,.78-2.59,2.08l-.38,4c0,4.99-1.74,9.19-5.04,12.14-3.7,3.32-9.22,4.84-15.14,4.19-10.26-1.14-18.92-9.51-18.92-18.28,0-.39,.02-.78,.05-1.16,.38-4.28,2.39-8.12,5.66-10.8,3.9-3.21,9.16-4.57,15.22-3.93,2.18,.23,4.22,.72,6.09,1.43l76.5,11.39-57.73-50.63c-6.47-3.92-10.18-9.73-10.18-15.96h0c0-2.93,.85-5.84,2.45-8.4,.05-.08,.11-.15,.16-.22-14.61-4.55-30.15-7.01-46.27-7.01C69.56,0,0,69.56,0,155.36s69.56,155.36,155.36,155.36c49.01,0,92.7-22.7,121.18-58.14V114.15Z"/></g></g></g></svg>