<?xml version="1.0" encoding="UTF-8"?><svg xmlns="http://www.w3.org/2000/svg" viewBox="0 0 310.72 310.72"><defs><style>.d{fill:#1b4c6e;}</style></defs><g id="a"/><g id="b"><g id="c"><g><path class="d" d="M160.63,8.37c-11.39,0-20.66,9.27-20.66,20.66s9.27,20.65,20.66,20.65,20.65-9.26,20.65-20.65-9.26-20.66-20.65-20.66Z"/><path class="d" d="M187.25,3.28c-10.29-2.15-20.96-3.28-31.88-3.28-6.48,0-12.87,.4-19.14,1.17-7.75,6.8-12.66,16.76-12.66,27.86,0,20.43,16.63,37.06,37.07,37.06s37.05-16.62,37.05-37.06c0-10-3.98-19.08-10.44-25.75Zm-26.61,51.58c-14.25,0-25.84-11.59-25.84-25.83s11.59-25.84,25.84-25.84,25.83,11.59,25.83,25.84-11.59,25.83-25.83,25.83Z"/><path class="d" d="M182.87,99.85l7.17-10.95c.47-.71,1.25-1.15,2.1-1.17l13.09-.3-15.48-27.87c-6.19,5.91-14.15,9.96-23.01,11.25l16.12,29.03Z"/><path class="d" d="M195.52,5.25c4.63,6.78,7.35,14.97,7.35,23.78,0,10.04-3.53,19.27-9.4,26.53l18.39,33.11c.44,.79,.43,1.76-.02,2.55-.45,.78-1.28,1.28-2.19,1.3l-16.01,.36-8.78,13.39c-.48,.73-1.3,1.17-2.17,1.17h-.1c-.91-.04-1.73-.54-2.17-1.33l-19.06-34.32c-.1-.17-.17-.36-.22-.54-.17,0-.34,.01-.51,.01s-.35-.01-.53-.01c-.05,.18-.12,.37-.22,.54l-19.06,34.32c-.44,.79-1.27,1.3-2.17,1.33h-.1c-.87,0-1.68-.44-2.17-1.17l-8.78-13.39-16.01-.36c-.91-.02-1.74-.52-2.19-1.3-.45-.79-.46-1.76-.02-2.55l18.39-33.12c-5.87-7.26-9.4-16.48-9.4-26.52s3.55-19.33,9.46-26.6C55.16,15.42,0,78.95,0,155.36c0,85.8,69.56,155.36,155.36,155.36s155.36-69.56,155.36-155.36c0-71.92-48.87-132.41-115.21-150.11Z"/><path class="d" d="M129.1,87.74c.85,.02,1.64,.46,2.1,1.17l7.17,10.95,16.12-29.03c-8.85-1.29-16.82-5.35-23.01-11.25l-15.48,27.87,13.09,.3Z"/></g></g></g></svg>