<?xml version="1.0" encoding="UTF-8"?><svg xmlns="http://www.w3.org/2000/svg" viewBox="0 0 575.76 868.1"><defs><style>.d{fill:#fff;}.e{fill:#1b4c6e;}.f{fill:#97244c;}</style></defs><g id="a"/><g id="b"><g id="c"><g><circle class="f" cx="6.07" cy="862.03" r="6.07"/><circle class="f" cx="6.07" cy="797.74" r="6.07"/><path class="f" d="M6.07,727.37c3.35,0,6.07,2.72,6.07,6.07s-2.72,6.07-6.07,6.07-6.07-2.72-6.07-6.07,2.72-6.07,6.07-6.07Z"/><path class="f" d="M6.07,663.08c3.35,0,6.07,2.72,6.07,6.07s-2.72,6.07-6.07,6.07-6.07-2.72-6.07-6.07,2.72-6.07,6.07-6.07Z"/><path class="d" d="M6.07,598.79c3.35,0,6.07,2.72,6.07,6.07s-2.72,6.07-6.07,6.07-6.07-2.72-6.07-6.07,2.72-6.07,6.07-6.07Z"/><circle class="f" cx="6.07" cy="540.57" r="6.07"/><path class="f" d="M6.07,470.2c3.35,0,6.07,2.72,6.07,6.07s-2.72,6.07-6.07,6.07-6.07-2.72-6.07-6.07,2.72-6.07,6.07-6.07Z"/><circle class="d" cx="77.21" cy="862.03" r="6.07"/><circle class="f" cx="77.21" cy="797.74" r="6.07"/><path class="f" d="M77.21,727.37c3.35,0,6.07,2.72,6.07,6.07s-2.72,6.07-6.07,6.07-6.07-2.72-6.07-6.07,2.72-6.07,6.07-6.07Z"/><path class="f" d="M77.21,663.08c3.35,0,6.07,2.72,6.07,6.07s-2.72,6.07-6.07,6.07-6.07-2.72-6.07-6.07,2.72-6.07,6.07-6.07Z"/><path class="f" d="M77.21,598.79c3.35,0,6.07,2.72,6.07,6.07s-2.72,6.07-6.07,6.07-6.07-2.72-6.07-6.07,2.72-6.07,6.07-6.07Z"/><circle class="f" cx="77.21" cy="540.57" r="6.07"/><path class="f" d="M77.21,470.2c3.35,0,6.07,2.72,6.07,6.07s-2.72,6.07-6.07,6.07-6.07-2.72-6.07-6.07,2.72-6.07,6.07-6.07Z"/><path class="f" d="M148.36,855.96c3.35,0,6.07,2.72,6.07,6.07s-2.72,6.07-6.07,6.07-6.07-2.72-6.07-6.07,2.72-6.07,6.07-6.07Z"/><path class="f" d="M148.36,791.67c3.35,0,6.07,2.72,6.07,6.07s-2.72,6.07-6.07,6.07-6.07-2.72-6.07-6.07,2.72-6.07,6.07-6.07Z"/><path class="d" d="M148.36,727.37c3.35,0,6.07,2.72,6.07,6.07s-2.72,6.07-6.07,6.07-6.07-2.72-6.07-6.07,2.72-6.07,6.07-6.07Z"/><path class="f" d="M148.36,663.08c3.35,0,6.07,2.72,6.07,6.07s-2.72,6.07-6.07,6.07-6.07-2.72-6.07-6.07,2.72-6.07,6.07-6.07Z"/><path class="f" d="M148.36,598.79c3.35,0,6.07,2.72,6.07,6.07s-2.72,6.07-6.07,6.07-6.07-2.72-6.07-6.07,2.72-6.07,6.07-6.07Z"/><path class="f" d="M148.36,534.49c3.35,0,6.07,2.72,6.07,6.07s-2.72,6.07-6.07,6.07-6.07-2.72-6.07-6.07,2.72-6.07,6.07-6.07Z"/><path class="f" d="M148.36,470.2c3.35,0,6.07,2.72,6.07,6.07s-2.72,6.07-6.07,6.07-6.07-2.72-6.07-6.07,2.72-6.07,6.07-6.07Z"/><circle class="f" cx="219.5" cy="862.03" r="6.07"/><circle class="f" cx="219.5" cy="797.74" r="6.07"/><path class="f" d="M219.5,727.37c3.35,0,6.07,2.72,6.07,6.07s-2.72,6.07-6.07,6.07-6.07-2.72-6.07-6.07,2.72-6.07,6.07-6.07Z"/><path class="f" d="M219.5,663.08c3.35,0,6.07,2.72,6.07,6.07s-2.72,6.07-6.07,6.07-6.07-2.72-6.07-6.07,2.72-6.07,6.07-6.07Z"/><path class="d" d="M219.5,598.79c3.35,0,6.07,2.72,6.07,6.07s-2.72,6.07-6.07,6.07-6.07-2.72-6.07-6.07,2.72-6.07,6.07-6.07Z"/><circle class="f" cx="219.5" cy="540.57" r="6.07"/><path class="f" d="M219.5,470.2c3.35,0,6.07,2.72,6.07,6.07s-2.72,6.07-6.07,6.07-6.07-2.72-6.07-6.07,2.72-6.07,6.07-6.07Z"/><path class="f" d="M290.64,855.96c3.35,0,6.07,2.72,6.07,6.07s-2.72,6.07-6.07,6.07-6.07-2.72-6.07-6.07,2.72-6.07,6.07-6.07Z"/><path class="f" d="M290.64,791.67c3.35,0,6.07,2.72,6.07,6.07s-2.72,6.07-6.07,6.07-6.07-2.72-6.07-6.07,2.72-6.07,6.07-6.07Z"/><path class="f" d="M290.64,727.37c3.35,0,6.07,2.72,6.07,6.07s-2.72,6.07-6.07,6.07-6.07-2.72-6.07-6.07,2.72-6.07,6.07-6.07Z"/><path class="f" d="M290.64,663.08c3.35,0,6.07,2.72,6.07,6.07s-2.72,6.07-6.07,6.07-6.07-2.72-6.07-6.07,2.72-6.07,6.07-6.07Z"/><path class="f" d="M290.64,598.79c3.35,0,6.07,2.72,6.07,6.07s-2.72,6.07-6.07,6.07-6.07-2.72-6.07-6.07,2.72-6.07,6.07-6.07Z"/><path class="f" d="M290.64,534.49c3.35,0,6.07,2.72,6.07,6.07s-2.72,6.07-6.07,6.07-6.07-2.72-6.07-6.07,2.72-6.07,6.07-6.07Z"/><path class="f" d="M290.64,470.2c3.35,0,6.07,2.72,6.07,6.07s-2.72,6.07-6.07,6.07-6.07-2.72-6.07-6.07,2.72-6.07,6.07-6.07Z"/><circle class="f" cx="361.79" cy="862.03" r="6.07"/><circle class="f" cx="361.79" cy="797.74" r="6.07"/><path class="f" d="M361.79,727.37c3.35,0,6.07,2.72,6.07,6.07s-2.72,6.07-6.07,6.07-6.07-2.72-6.07-6.07,2.72-6.07,6.07-6.07Z"/><path class="d" d="M361.79,663.08c3.35,0,6.07,2.72,6.07,6.07s-2.72,6.07-6.07,6.07-6.07-2.72-6.07-6.07,2.72-6.07,6.07-6.07Z"/><path class="f" d="M361.79,598.79c3.35,0,6.07,2.72,6.07,6.07s-2.72,6.07-6.07,6.07-6.07-2.72-6.07-6.07,2.72-6.07,6.07-6.07Z"/><circle class="f" cx="361.79" cy="540.57" r="6.07"/><path class="f" d="M361.79,470.2c3.35,0,6.07,2.72,6.07,6.07s-2.72,6.07-6.07,6.07-6.07-2.72-6.07-6.07,2.72-6.07,6.07-6.07Z"/><circle class="f" cx="432.93" cy="862.03" r="6.07"/><circle class="f" cx="432.93" cy="797.74" r="6.07"/><path class="f" d="M432.93,727.37c3.35,0,6.07,2.72,6.07,6.07s-2.72,6.07-6.07,6.07-6.07-2.72-6.07-6.07,2.72-6.07,6.07-6.07Z"/><path class="f" d="M432.93,663.08c3.35,0,6.07,2.72,6.07,6.07s-2.72,6.07-6.07,6.07-6.07-2.72-6.07-6.07,2.72-6.07,6.07-6.07Z"/><path class="f" d="M432.93,598.79c3.35,0,6.07,2.72,6.07,6.07s-2.72,6.07-6.07,6.07-6.07-2.72-6.07-6.07,2.72-6.07,6.07-6.07Z"/><circle class="d" cx="432.93" cy="540.57" r="6.07"/><path class="f" d="M432.93,470.2c3.35,0,6.07,2.72,6.07,6.07s-2.72,6.07-6.07,6.07-6.07-2.72-6.07-6.07,2.72-6.07,6.07-6.07Z"/><path class="f" d="M504.07,855.96c3.35,0,6.07,2.72,6.07,6.07s-2.72,6.07-6.07,6.07-6.07-2.72-6.07-6.07,2.72-6.07,6.07-6.07Z"/><path class="d" d="M504.07,791.67c3.35,0,6.07,2.72,6.07,6.07s-2.72,6.07-6.07,6.07-6.07-2.72-6.07-6.07,2.72-6.07,6.07-6.07Z"/><path class="f" d="M504.07,727.37c3.35,0,6.07,2.72,6.07,6.07s-2.72,6.07-6.07,6.07-6.07-2.72-6.07-6.07,2.72-6.07,6.07-6.07Z"/><path class="f" d="M498,669.15c0-3.35,2.72-6.07,6.07-6.07s6.07,2.72,6.07,6.07"/><path class="f" d="M504.07,598.79c3.35,0,6.07,2.72,6.07,6.07s-2.72,6.07-6.07,6.07-6.07-2.72-6.07-6.07,2.72-6.07,6.07-6.07Z"/><path class="f" d="M504.07,534.49c3.35,0,6.07,2.72,6.07,6.07s-2.72,6.07-6.07,6.07-6.07-2.72-6.07-6.07,2.72-6.07,6.07-6.07Z"/><path class="f" d="M504.07,470.2c3.35,0,6.07,2.72,6.07,6.07s-2.72,6.07-6.07,6.07-6.07-2.72-6.07-6.07,2.72-6.07,6.07-6.07Z"/></g><path class="e" d="M575.74,663.03c-151.84-32.06-266.84-166.32-268.43-327.78-1.59-161.46,110.75-297.96,261.93-332.99l-.02-2.26c-152.41,35.09-265.72,172.59-264.12,335.27,1.6,162.68,117.59,297.93,270.66,330.01l-.02-2.26Z"/></g></g></svg>