<?xml version="1.0" encoding="UTF-8"?><svg xmlns="http://www.w3.org/2000/svg" viewBox="0 0 510.14 397.9"><defs><style>.d{fill:#fff;}.e{fill:#97244c;}</style></defs><g id="a"/><g id="b"><g id="c"><g><circle class="e" cx="6.07" cy="391.83" r="6.07"/><circle class="e" cx="6.07" cy="327.54" r="6.07"/><path class="e" d="M6.07,257.17c3.35,0,6.07,2.72,6.07,6.07s-2.72,6.07-6.07,6.07-6.07-2.72-6.07-6.07,2.72-6.07,6.07-6.07Z"/><path class="e" d="M6.07,192.88c3.35,0,6.07,2.72,6.07,6.07s-2.72,6.07-6.07,6.07-6.07-2.72-6.07-6.07,2.72-6.07,6.07-6.07Z"/><path class="d" d="M6.07,128.59c3.35,0,6.07,2.72,6.07,6.07s-2.72,6.07-6.07,6.07-6.07-2.72-6.07-6.07,2.72-6.07,6.07-6.07Z"/><circle class="e" cx="6.07" cy="70.36" r="6.07"/><path class="e" d="M6.07,0c3.35,0,6.07,2.72,6.07,6.07s-2.72,6.07-6.07,6.07S0,9.42,0,6.07,2.72,0,6.07,0Z"/><circle class="d" cx="77.21" cy="391.83" r="6.07"/><circle class="e" cx="77.21" cy="327.54" r="6.07"/><path class="e" d="M77.21,257.17c3.35,0,6.07,2.72,6.07,6.07s-2.72,6.07-6.07,6.07-6.07-2.72-6.07-6.07,2.72-6.07,6.07-6.07Z"/><path class="e" d="M77.21,192.88c3.35,0,6.07,2.72,6.07,6.07s-2.72,6.07-6.07,6.07-6.07-2.72-6.07-6.07,2.72-6.07,6.07-6.07Z"/><path class="e" d="M77.21,128.59c3.35,0,6.07,2.72,6.07,6.07s-2.72,6.07-6.07,6.07-6.07-2.72-6.07-6.07,2.72-6.07,6.07-6.07Z"/><circle class="e" cx="77.21" cy="70.36" r="6.07"/><path class="e" d="M77.21,0c3.35,0,6.07,2.72,6.07,6.07s-2.72,6.07-6.07,6.07-6.07-2.72-6.07-6.07,2.72-6.07,6.07-6.07Z"/><path class="e" d="M148.36,385.76c3.35,0,6.07,2.72,6.07,6.07s-2.72,6.07-6.07,6.07-6.07-2.72-6.07-6.07,2.72-6.07,6.07-6.07Z"/><path class="e" d="M148.36,321.47c3.35,0,6.07,2.72,6.07,6.07s-2.72,6.07-6.07,6.07-6.07-2.72-6.07-6.07,2.72-6.07,6.07-6.07Z"/><path class="d" d="M148.36,257.17c3.35,0,6.07,2.72,6.07,6.07s-2.72,6.07-6.07,6.07-6.07-2.72-6.07-6.07,2.72-6.07,6.07-6.07Z"/><path class="e" d="M148.36,192.88c3.35,0,6.07,2.72,6.07,6.07s-2.72,6.07-6.07,6.07-6.07-2.72-6.07-6.07,2.72-6.07,6.07-6.07Z"/><path class="e" d="M148.36,128.59c3.35,0,6.07,2.72,6.07,6.07s-2.72,6.07-6.07,6.07-6.07-2.72-6.07-6.07,2.72-6.07,6.07-6.07Z"/><path class="e" d="M148.36,64.29c3.35,0,6.07,2.72,6.07,6.07s-2.72,6.07-6.07,6.07-6.07-2.72-6.07-6.07,2.72-6.07,6.07-6.07Z"/><path class="e" d="M148.36,0c3.35,0,6.07,2.72,6.07,6.07s-2.72,6.07-6.07,6.07-6.07-2.72-6.07-6.07,2.72-6.07,6.07-6.07Z"/><circle class="e" cx="219.5" cy="391.83" r="6.07"/><circle class="e" cx="219.5" cy="327.54" r="6.07"/><path class="e" d="M219.5,257.17c3.35,0,6.07,2.72,6.07,6.07s-2.72,6.07-6.07,6.07-6.07-2.72-6.07-6.07,2.72-6.07,6.07-6.07Z"/><path class="e" d="M219.5,192.88c3.35,0,6.07,2.72,6.07,6.07s-2.72,6.07-6.07,6.07-6.07-2.72-6.07-6.07,2.72-6.07,6.07-6.07Z"/><path class="d" d="M219.5,128.59c3.35,0,6.07,2.72,6.07,6.07s-2.72,6.07-6.07,6.07-6.07-2.72-6.07-6.07,2.72-6.07,6.07-6.07Z"/><circle class="e" cx="219.5" cy="70.36" r="6.07"/><path class="e" d="M219.5,0c3.35,0,6.07,2.72,6.07,6.07s-2.72,6.07-6.07,6.07-6.07-2.72-6.07-6.07,2.72-6.07,6.07-6.07Z"/><path class="e" d="M290.64,385.76c3.35,0,6.07,2.72,6.07,6.07s-2.72,6.07-6.07,6.07-6.07-2.72-6.07-6.07,2.72-6.07,6.07-6.07Z"/><path class="e" d="M290.64,321.47c3.35,0,6.07,2.72,6.07,6.07s-2.72,6.07-6.07,6.07-6.07-2.72-6.07-6.07,2.72-6.07,6.07-6.07Z"/><path class="e" d="M290.64,257.17c3.35,0,6.07,2.72,6.07,6.07s-2.72,6.07-6.07,6.07-6.07-2.72-6.07-6.07,2.72-6.07,6.07-6.07Z"/><path class="e" d="M290.64,192.88c3.35,0,6.07,2.72,6.07,6.07s-2.72,6.07-6.07,6.07-6.07-2.72-6.07-6.07,2.72-6.07,6.07-6.07Z"/><path class="e" d="M290.64,128.59c3.35,0,6.07,2.72,6.07,6.07s-2.72,6.07-6.07,6.07-6.07-2.72-6.07-6.07,2.72-6.07,6.07-6.07Z"/><path class="e" d="M290.64,64.29c3.35,0,6.07,2.72,6.07,6.07s-2.72,6.07-6.07,6.07-6.07-2.72-6.07-6.07,2.72-6.07,6.07-6.07Z"/><path class="e" d="M290.64,0c3.35,0,6.07,2.72,6.07,6.07s-2.72,6.07-6.07,6.07-6.07-2.72-6.07-6.07,2.72-6.07,6.07-6.07Z"/><circle class="e" cx="361.79" cy="391.83" r="6.07"/><circle class="e" cx="361.79" cy="327.54" r="6.07"/><path class="e" d="M361.79,257.17c3.35,0,6.07,2.72,6.07,6.07s-2.72,6.07-6.07,6.07-6.07-2.72-6.07-6.07,2.72-6.07,6.07-6.07Z"/><path class="d" d="M361.79,192.88c3.35,0,6.07,2.72,6.07,6.07s-2.72,6.07-6.07,6.07-6.07-2.72-6.07-6.07,2.72-6.07,6.07-6.07Z"/><path class="e" d="M361.79,128.59c3.35,0,6.07,2.72,6.07,6.07s-2.72,6.07-6.07,6.07-6.07-2.72-6.07-6.07,2.72-6.07,6.07-6.07Z"/><circle class="e" cx="361.79" cy="70.36" r="6.07"/><path class="e" d="M361.79,0c3.35,0,6.07,2.72,6.07,6.07s-2.72,6.07-6.07,6.07-6.07-2.72-6.07-6.07,2.72-6.07,6.07-6.07Z"/><circle class="e" cx="432.93" cy="391.83" r="6.07"/><circle class="e" cx="432.93" cy="327.54" r="6.07"/><path class="e" d="M432.93,257.17c3.35,0,6.07,2.72,6.07,6.07s-2.72,6.07-6.07,6.07-6.07-2.72-6.07-6.07,2.72-6.07,6.07-6.07Z"/><path class="e" d="M432.93,192.88c3.35,0,6.07,2.72,6.07,6.07s-2.72,6.07-6.07,6.07-6.07-2.72-6.07-6.07,2.72-6.07,6.07-6.07Z"/><path class="e" d="M432.93,128.59c3.35,0,6.07,2.72,6.07,6.07s-2.72,6.07-6.07,6.07-6.07-2.72-6.07-6.07,2.72-6.07,6.07-6.07Z"/><circle class="d" cx="432.93" cy="70.36" r="6.07"/><path class="e" d="M432.93,0c3.35,0,6.07,2.72,6.07,6.07s-2.72,6.07-6.07,6.07-6.07-2.72-6.07-6.07,2.72-6.07,6.07-6.07Z"/><path class="e" d="M504.07,385.76c3.35,0,6.07,2.72,6.07,6.07s-2.72,6.07-6.07,6.07-6.07-2.72-6.07-6.07,2.72-6.07,6.07-6.07Z"/><path class="d" d="M504.07,321.47c3.35,0,6.07,2.72,6.07,6.07s-2.72,6.07-6.07,6.07-6.07-2.72-6.07-6.07,2.72-6.07,6.07-6.07Z"/><path class="e" d="M504.07,257.17c3.35,0,6.07,2.72,6.07,6.07s-2.72,6.07-6.07,6.07-6.07-2.72-6.07-6.07,2.72-6.07,6.07-6.07Z"/><path class="e" d="M498,198.95c0-3.35,2.72-6.07,6.07-6.07s6.07,2.72,6.07,6.07"/><path class="e" d="M504.07,128.59c3.35,0,6.07,2.72,6.07,6.07s-2.72,6.07-6.07,6.07-6.07-2.72-6.07-6.07,2.72-6.07,6.07-6.07Z"/><path class="e" d="M504.07,64.29c3.35,0,6.07,2.72,6.07,6.07s-2.72,6.07-6.07,6.07-6.07-2.72-6.07-6.07,2.72-6.07,6.07-6.07Z"/><path class="e" d="M504.07,0c3.35,0,6.07,2.72,6.07,6.07s-2.72,6.07-6.07,6.07-6.07-2.72-6.07-6.07,2.72-6.07,6.07-6.07Z"/></g></g></g></svg>