<?xml version="1.0" encoding="UTF-8"?><svg xmlns="http://www.w3.org/2000/svg" viewBox="0 0 44.86 33.64"><defs><style>.e{fill:#1b4c6e;}</style></defs><g id="a"/><g id="b"><g id="c"><path id="d" class="e" d="M40.65,0H4.2C1.88,0,0,1.88,0,4.21V29.43c0,2.32,1.88,4.21,4.2,4.21H40.65c2.32,0,4.2-1.88,4.2-4.21V4.21c0-2.32-1.88-4.21-4.2-4.21Zm2.8,28.81l-13.26-13.26,13.26-8.45V28.81ZM4.2,1.4H40.65c1.55,0,2.8,1.26,2.8,2.8v1.24l-19.3,12.3c-1.04,.67-2.38,.64-3.4-.05L1.4,4.53v-.33c0-1.55,1.26-2.8,2.8-2.8ZM1.4,6.23L14.85,15.37,1.4,28.81V6.23Zm39.25,26.01H4.2c-1.15,0-2.15-.7-2.58-1.7l14.38-14.38,3.96,2.69c.76,.52,1.64,.78,2.52,.78s1.68-.23,2.42-.7l4.09-2.61,14.22,14.22c-.43,1-1.42,1.7-2.58,1.7Z"/></g></g></svg>