<?xml version="1.0" encoding="UTF-8"?><svg xmlns="http://www.w3.org/2000/svg" viewBox="0 0 33.6 47.22"><defs><style>.d{fill:#1b4c6e;}</style></defs><g id="a"/><g id="b"><g id="c"><path class="d" d="M16.8,47.22c-.49,0-1.31,0-6.2-6.86C6.09,34.02,3.24,29.74,1.18,23.16,.36,20.56-.39,17.44,.22,14.08,1.36,7.81,4.91,3.44,10.75,1.07c1.6-.65,5.5-1.39,8.78-.94,6.27,.87,11.81,5.81,13.48,12.02,.85,3.16,.77,6.41-.22,9.94-2.1,7.4-5.52,12.62-9.44,18.19-.5,.71-4.92,6.94-6.55,6.94ZM17.34,1.47c-2.55,0-5.05,.57-6.05,.97C5.95,4.6,2.71,8.6,1.67,14.34c-.55,3.05,.15,5.95,.91,8.38,1.99,6.37,4.79,10.57,9.17,16.71,3.5,4.91,4.73,6.02,5.07,6.27,.87-.53,3.57-3.76,5.33-6.27,3.84-5.47,7.19-10.58,9.22-17.75,.93-3.26,1-6.26,.22-9.16-1.52-5.65-6.56-10.15-12.26-10.94h0c-.65-.09-1.32-.13-1.99-.13Zm-.53,26.05h-.02c-2.88,0-5.58-1.14-7.62-3.19-2.05-2.06-3.16-4.8-3.14-7.7,.04-5.91,4.85-10.69,10.73-10.69,.02,0,.05,0,.07,0h0c2.91,.02,5.62,1.15,7.65,3.2,2.03,2.05,3.13,4.77,3.11,7.67-.04,5.91-4.88,10.71-10.78,10.71Zm-.05-20.11c-5.08,0-9.23,4.13-9.26,9.23-.02,2.51,.95,4.87,2.72,6.65,1.76,1.77,4.1,2.75,6.58,2.76h.01c5.1,0,9.28-4.15,9.31-9.25,.02-2.51-.94-4.86-2.69-6.63-1.75-1.77-4.1-2.75-6.61-2.77h-.06Z"/></g></g></svg>