<?xml version="1.0" encoding="UTF-8"?><svg xmlns="http://www.w3.org/2000/svg" viewBox="0 0 243.58 138.43"><defs><style>.d,.e{fill:#fff;}.f{fill:#1b4c6e;}.e{stroke:#1d1d1b;stroke-miterlimit:10;stroke-width:1.06px;}.g{fill:#97244c;}.h{fill:#1d1d1b;}</style></defs><g id="a"/><g id="b"><g id="c"><g><g><path class="f" d="M17.62,78.93v3.16H3.99v4.65h12.28v3.16H3.99v5h14.15v3.23H.45v-19.18H17.62Z"/><path class="f" d="M32.02,78.93l12.73,14.26v-14.26h3.54v19.18h-3.58l-12.76-14.33v14.33h-3.47v-19.18h3.54Z"/><path class="f" d="M68.54,78.93c1.34,0,2.64,.23,3.89,.68,1.25,.45,2.35,1.09,3.31,1.93,.96,.83,1.72,1.84,2.29,3.02,.57,1.18,.85,2.5,.85,3.95s-.29,2.78-.87,3.97c-.58,1.19-1.34,2.2-2.29,3.04-.95,.83-2.05,1.47-3.3,1.93-1.25,.45-2.54,.68-3.89,.68h-9.68v-19.18h9.68Zm-6.14,15.96h6.07c1.02,0,1.95-.16,2.79-.47,.84-.31,1.57-.75,2.17-1.3,.6-.56,1.07-1.23,1.4-2.02,.33-.79,.5-1.66,.5-2.61s-.17-1.82-.5-2.61c-.34-.79-.8-1.46-1.4-2.02-.6-.56-1.32-.99-2.17-1.3-.84-.31-1.78-.47-2.79-.47h-6.07v12.8Z"/><path class="f" d="M110.1,88.53c0,1.53-.28,2.91-.83,4.15-.56,1.24-1.32,2.3-2.29,3.17-.97,.88-2.11,1.56-3.42,2.03-1.31,.47-2.7,.71-4.19,.71s-2.88-.24-4.19-.71c-1.31-.47-2.45-1.15-3.42-2.03-.97-.88-1.74-1.94-2.29-3.17-.56-1.24-.83-2.62-.83-4.15s.28-2.91,.83-4.15c.56-1.24,1.32-2.29,2.29-3.17,.97-.88,2.11-1.55,3.42-2.03,1.31-.47,2.7-.71,4.19-.71s2.88,.24,4.19,.71c1.31,.47,2.45,1.15,3.42,2.03,.97,.88,1.74,1.94,2.29,3.17,.56,1.24,.83,2.62,.83,4.15Zm-17.93,0c0,1.11,.18,2.1,.56,2.97,.37,.87,.88,1.6,1.53,2.2,.65,.6,1.4,1.06,2.27,1.37s1.81,.47,2.83,.47,1.97-.16,2.84-.47c.88-.31,1.64-.77,2.29-1.37,.65-.6,1.16-1.34,1.53-2.2,.37-.87,.55-1.86,.55-2.97s-.19-2.1-.55-2.97c-.37-.87-.88-1.6-1.53-2.2-.65-.6-1.41-1.06-2.29-1.37-.88-.31-1.83-.47-2.84-.47s-1.96,.16-2.83,.47c-.87,.31-1.63,.77-2.27,1.37-.65,.6-1.16,1.34-1.53,2.2-.37,.87-.56,1.86-.56,2.97Z"/><path class="f" d="M136.57,83.75c-1.16-.74-2.33-1.28-3.52-1.61s-2.57-.5-4.15-.5c-1.06,0-1.94,.07-2.64,.21-.69,.14-1.24,.33-1.63,.57-.39,.24-.67,.51-.83,.81-.16,.3-.24,.62-.24,.97,0,.72,.28,1.21,.83,1.47,.55,.27,1.28,.46,2.19,.57l5.97,.69c1.99,.25,3.55,.83,4.68,1.71,1.13,.89,1.7,2.18,1.7,3.86,0,1.04-.24,1.94-.71,2.72-.47,.77-1.14,1.41-1.99,1.9-.86,.5-1.89,.87-3.09,1.11-1.2,.24-2.52,.36-3.95,.36-1.92,0-3.65-.22-5.19-.66-1.54-.44-3.05-1.19-4.53-2.25l1.67-2.74c1.34,.9,2.68,1.56,4.02,1.96,1.34,.4,2.86,.61,4.54,.61s3.14-.24,4.21-.73c1.08-.49,1.61-1.23,1.61-2.22,0-1.36-.99-2.15-2.98-2.36l-6.31-.69c-1.9-.23-3.39-.75-4.49-1.54-1.1-.8-1.65-2.05-1.65-3.76,0-.97,.23-1.82,.69-2.55,.46-.73,1.09-1.32,1.89-1.79,.8-.46,1.73-.81,2.81-1.04,1.08-.23,2.21-.35,3.42-.35,1.73,0,3.36,.18,4.87,.54,1.51,.36,3.01,1.07,4.49,2.12l-1.7,2.61Z"/><path class="f" d="M160.38,78.93c1.11,0,2.14,.18,3.09,.54,.95,.36,1.77,.86,2.47,1.51,.7,.65,1.25,1.43,1.65,2.34,.4,.91,.61,1.93,.61,3.03s-.2,2.12-.61,3.02c-.41,.9-.96,1.67-1.65,2.31-.7,.64-1.52,1.13-2.47,1.47-.95,.35-1.98,.52-3.09,.52h-7.75v4.44h-3.54v-19.18h11.29Zm-7.76,11.52h7.6c1.32,0,2.39-.36,3.21-1.08,.82-.72,1.23-1.72,1.23-3.02s-.41-2.35-1.23-3.09c-.82-.74-1.89-1.11-3.21-1.11h-7.6v8.29Z"/><path class="f" d="M199.04,78.93l12.73,14.26v-14.26h3.54v19.18h-3.58l-12.76-14.33v14.33h-3.47v-19.18h3.54Z"/><path class="f" d="M243.06,78.93v3.16h-13.63v4.65h12.28v3.16h-12.28v5h14.15v3.23h-17.69v-19.18h17.17Z"/><path class="g" d="M17.45,111.81c-.76-1.04-1.69-1.84-2.79-2.41-1.1-.57-2.45-.85-4.04-.85-1.09,0-2.06,.16-2.93,.49-.87,.32-1.61,.79-2.22,1.39-.61,.6-1.09,1.33-1.42,2.19-.34,.86-.5,1.8-.5,2.84s.17,1.95,.52,2.79c.35,.84,.83,1.57,1.46,2.19,.62,.61,1.37,1.09,2.24,1.42s1.82,.5,2.86,.5c1.6,0,2.93-.28,4.01-.85,1.08-.57,2.02-1.38,2.83-2.45l2.78,1.63c-1.02,1.55-2.31,2.74-3.89,3.57s-3.46,1.25-5.65,1.25c-1.53,0-2.94-.23-4.23-.69-1.3-.46-2.43-1.13-3.39-1.99-.97-.87-1.72-1.93-2.25-3.17-.54-1.25-.81-2.65-.81-4.2s.27-2.95,.82-4.2c.55-1.25,1.31-2.31,2.27-3.17,.97-.87,2.1-1.53,3.39-1.99,1.29-.46,2.69-.69,4.2-.69,2.17,0,4.05,.41,5.64,1.23,1.58,.82,2.87,2.02,3.87,3.59l-2.74,1.6Z"/><path class="g" d="M33.79,105.85v16.03h13.81v3.16H30.25v-19.18h3.54Z"/><path class="g" d="M60.36,105.85v9.8c0,2.05,.5,3.69,1.49,4.9,.99,1.21,2.57,1.82,4.72,1.82s3.73-.61,4.73-1.82c1.01-1.21,1.51-2.84,1.51-4.9v-9.8h3.54v9.78c0,1.6-.23,3.01-.68,4.23-.45,1.23-1.11,2.25-1.96,3.09-.86,.83-1.89,1.47-3.09,1.91-1.21,.44-2.55,.66-4.03,.66s-2.86-.22-4.05-.66c-1.19-.44-2.22-1.08-3.08-1.91-.86-.83-1.51-1.86-1.96-3.09-.45-1.23-.68-2.64-.68-4.23v-9.78h3.54Z"/><path class="g" d="M99.03,105.85c.86,0,1.65,.12,2.38,.35,.73,.23,1.35,.57,1.86,1.01s.91,.96,1.2,1.56c.29,.6,.43,1.28,.43,2.05,0,1.6-.54,2.76-1.63,3.5,.95,.42,1.68,1.03,2.2,1.86,.52,.82,.78,1.81,.78,2.97,0,.81-.16,1.57-.47,2.29-.31,.72-.75,1.34-1.3,1.87-.56,.53-1.22,.95-1.99,1.27-.78,.31-1.64,.47-2.58,.47h-13.11v-19.18h12.24Zm-8.71,7.63h9.02c.67,0,1.19-.23,1.56-.68,.37-.45,.55-.96,.55-1.52,0-.3-.04-.59-.12-.86-.08-.27-.23-.51-.43-.72-.21-.21-.48-.38-.82-.51-.34-.13-.76-.19-1.27-.19h-8.5v4.47Zm0,8.39h9.44c1.02,0,1.78-.26,2.29-.79,.51-.52,.76-1.16,.76-1.9,0-.81-.25-1.45-.75-1.92-.5-.47-1.15-.7-1.96-.7h-9.78v5.31Z"/></g><g><g><path class="d" d="M173.65,48.73h31.91c2.08,0,3.78,1.69,3.78,3.78,0,1.04-.42,1.99-1.1,2.67-.69,.68-1.63,1.1-2.67,1.1h-27.29v.02h-7c-1.04,0-1.99,.42-2.67,1.1-.68,.68-1.1,1.62-1.1,2.66,0,2.08,1.69,3.77,3.77,3.77h2.67c-2.04,0-3.68,1.65-3.68,3.68s1.64,3.68,3.68,3.68h-11.95c-1.92,0-4.27-.42-5.79-.83-4.26-1.16-7.18-1.8-11.08-1.99-1.44-.07-2.89-.02-4.33,.13h-.04c-1.25,.14-2.48-.5-3.14-1.69-1.09-1.94-2.4-5.53-2.38-11.47,.02-6.29,1.66-9.69,2.89-11.35,.64-.87,1.6-1.37,2.6-1.37h.02c2.37-.29,7.36-.49,11.04-4,3.75-5.03,9.86-7.37,12.31-9.51l8.44-10.14c1.3-1.52,3.36-2.3,5.72-.37,2.2,1.79-.47,6.4-1.12,7.53l-11.05,15.05h35.34c1.07,0,2.04,.44,2.73,1.12,.69,.69,1.13,1.64,1.12,2.68,0,2.04-1.68,3.7-3.75,3.75h-27.88Z"/><path class="h" d="M173.94,71.74h-11.95c-2.09,0-4.5-.46-5.93-.85-4.27-1.16-7.14-1.79-10.97-1.97-1.37-.07-2.8-.03-4.24,.13-1.51,.16-2.95-.61-3.7-1.96-1.13-2.02-2.47-5.69-2.45-11.73,.03-6.34,1.64-9.84,2.99-11.67,.74-1.01,1.84-1.59,3.03-1.59,.18-.02,.43-.05,.7-.08,2.54-.27,6.79-.72,9.98-3.78,2.53-3.4,6.13-5.58,9.03-7.33,1.36-.82,2.53-1.53,3.3-2.2l8.38-10.08c1.81-2.11,4.23-2.27,6.47-.44,1.17,.96,1.95,3.15-1,8.21l-10.46,14.25h34.29c1.17,0,2.27,.46,3.1,1.27,.84,.83,1.29,1.92,1.29,3.06,0,1.29-.58,2.43-1.49,3.22h1.24c2.38,0,4.31,1.93,4.31,4.31,0,1.15-.45,2.23-1.26,3.05-.82,.82-1.9,1.26-3.05,1.26l-34.29,.03c-.86,0-1.68,.34-2.29,.95-.61,.61-.95,1.42-.95,2.28,0,1.79,1.45,3.24,3.24,3.24h2.67v1.06c-1.73,0-3.14,1.41-3.14,3.15s1.41,3.14,3.14,3.14v1.06Zm-30.14-3.92c.45,0,.9,.01,1.34,.03,3.92,.19,6.85,.82,11.19,2.01,1.48,.4,3.8,.81,5.65,.81h9.16c-.87-.77-1.42-1.9-1.42-3.14s.55-2.38,1.42-3.15c-2.31-.07-4.18-1.97-4.18-4.3,0-1.14,.45-2.22,1.26-3.04,.81-.81,1.89-1.26,3.04-1.26l34.29-.03c.86,0,1.68-.34,2.3-.95,.61-.62,.95-1.43,.95-2.29,0-1.79-1.46-3.24-3.24-3.24h-31.91v-1.07h27.88c1.79-.05,3.21-1.46,3.22-3.22,0-.86-.34-1.68-.97-2.3-.63-.61-1.47-.96-2.36-.96h-36.39l11.67-15.9c1.97-3.39,2.42-5.82,1.22-6.8-2.42-1.97-4.16-.65-4.98,.3l-8.43,10.13c-.9,.79-2.11,1.52-3.51,2.37-2.82,1.7-6.32,3.82-8.79,7.12-3.52,3.37-7.99,3.84-10.67,4.13-.27,.03-.51,.05-.73,.08-.93,0-1.72,.42-2.26,1.16-1.26,1.7-2.76,5-2.79,11.04-.02,5.81,1.25,9.3,2.32,11.21,.55,.98,1.58,1.54,2.62,1.43,1.06-.12,2.1-.17,3.11-.17Z"/></g><path class="h" d="M185.1,31.86h-7.12c-.76,0-1.37,.61-1.37,1.37v2.44l-10.09-10.09-.07,.07-3.32-3.32c.45-1.48,.11-3.16-1.05-4.32l-7.08-7.08-2.79-5.68-1.64-2.96-2.08-2.08c-.91-.91-4.73,1.44-8.53,5.25s-6.16,7.63-5.25,8.53l2.08,2.08,2.85,1.75,5.79,2.68,7.08,7.08c1.17,1.17,2.84,1.5,4.32,1.05l3.32,3.32-.79,.79h-1.94c-.71,0-1.28,.58-1.28,1.28v.04h-6.02c-.68,0-1.24,.56-1.24,1.24v2.3c0,.68,.56,1.24,1.24,1.24h6.02v.24c0,.71,.57,1.28,1.28,1.28h6.32l14.13,14.13v8.92h2.65v72.9l2.33,2.12V63.42h2.65v-24.56c.55-.18,.95-.69,.95-1.3v-4.33c0-.76-.61-1.37-1.37-1.37Z"/><g><path class="e" d="M173.09,64.69c-1.81,0-3.28,1.47-3.28,3.28s1.47,3.28,3.28,3.28h11.04c1.81,0,3.28-1.47,3.28-3.28,0-.88-.34-1.7-.96-2.32-.63-.63-1.45-.97-2.32-.97h-11.04Z"/><path class="e" d="M191.48,60.19c0,2.49-2.01,4.51-4.51,4.51h-16.73c-2.49,0-4.51-2.01-4.51-4.51,0-1.25,.51-2.37,1.32-3.18,.81-.81,1.94-1.32,3.19-1.32h16.73c2.49,0,4.51,2.01,4.51,4.5Z"/></g></g></g></g></g></svg>