<?xml version="1.0" encoding="UTF-8"?><svg xmlns="http://www.w3.org/2000/svg" viewBox="0 0 46.76 46.76"><defs><style>.d{fill:#1b4c6e;}</style></defs><g id="a"/><g id="b"><g id="c"><g><path class="d" d="M36.82,30.86l-7.12-4.1c-.97-.55-2.2-.39-2.98,.4l-1.41,1.4c-.28,.28-.73,.31-1.05,.06-1.11-.89-2.19-1.87-3.22-2.89-1.02-1.02-2-2.11-2.89-3.22-.25-.31-.22-.76,.06-1.05l1.4-1.4c.79-.79,.95-2.02,.4-2.99l-4.1-7.12c-.39-.67-1.05-1.12-1.82-1.22-.77-.1-1.53,.15-2.07,.7l-2.11,2.11c-1.55,1.55-1.59,4.34-.12,7.87,1.39,3.32,3.98,6.98,7.29,10.29,3.31,3.31,6.97,5.9,10.29,7.29,1.71,.71,3.24,1.08,4.56,1.08,1.4,0,2.51-.4,3.3-1.2l2.11-2.11c.55-.55,.81-1.3,.71-2.08-.1-.77-.55-1.43-1.22-1.82ZM13.91,10.14c.32,.04,.61,.23,.77,.52l4.1,7.12c.24,.41,.17,.93-.17,1.27l-.13,.13-5.15-8.95c.18-.08,.37-.11,.58-.09Zm3.14,13.26c.92,1.14,1.92,2.26,3,3.33,1.07,1.07,2.19,2.08,3.33,2.99,.88,.71,2.15,.64,2.95-.16l.2-.2,9.04,5.16-1.34,1.34c-1.1,1.1-3.4,1.03-6.31-.19-3.15-1.32-6.64-3.8-9.83-6.98-3.18-3.18-5.66-6.67-6.98-9.83-1.22-2.91-1.29-5.21-.19-6.31l1.34-1.34,5.19,9.01-.23,.23c-.8,.8-.87,2.07-.16,2.95Zm11.95,4.59l7.12,4.1c.29,.16,.48,.45,.52,.77,.03,.2,0,.4-.09,.57l-8.98-5.12,.16-.16c.34-.34,.86-.41,1.27-.17Z"/><path class="d" d="M39.92,6.85C35.5,2.43,29.63,0,23.38,0S11.26,2.43,6.85,6.85C2.43,11.26,0,17.14,0,23.38s2.43,12.12,6.85,16.53c4.42,4.42,10.29,6.85,16.53,6.85s12.12-2.43,16.53-6.85c4.42-4.42,6.85-10.29,6.85-16.53s-2.43-12.12-6.85-16.53ZM23.38,45.29C11.3,45.29,1.48,35.46,1.48,23.38S11.3,1.48,23.38,1.48s21.91,9.83,21.91,21.91-9.83,21.91-21.91,21.91Z"/></g></g></g></svg>