<?xml version="1.0" encoding="UTF-8"?><svg xmlns="http://www.w3.org/2000/svg" viewBox="0 0 176 461.9"><defs><style>.d{fill:#97244c;}</style></defs><g id="a"/><g id="b"><g id="c"><path class="d" d="M49.58,166.09c-8.26,0-14.67-3.23-19.21-9.71-4.54-6.47-6.82-15.63-6.82-27.47,0-16.53,3.72-30.78,11.15-42.76,7.44-11.98,18.31-22.24,32.64-30.78l9.92,16.11c-10.47,6.89-18.32,14.25-23.55,22.1-5.24,7.85-7.85,17.7-7.85,29.54l4.96,27.68-17.35-21.07c2.75-2.48,5.3-4.34,7.64-5.58,2.34-1.24,5.16-1.86,8.47-1.86,5.51,0,10.54,1.86,15.08,5.58,4.54,3.72,6.82,8.88,6.82,15.49s-2.07,12.39-6.2,16.53-9.37,6.2-15.7,6.2Zm73.13,0c-8.26,0-14.67-3.23-19.21-9.71-4.54-6.47-6.82-15.63-6.82-27.47,0-16.53,3.72-30.78,11.16-42.76,7.44-11.98,18.31-22.24,32.64-30.78l9.92,16.11c-10.47,6.89-18.32,14.25-23.55,22.1-5.24,7.85-7.85,17.7-7.85,29.54l4.96,27.68-17.35-21.07c2.75-2.48,5.3-4.34,7.64-5.58,2.34-1.24,5.16-1.86,8.47-1.86,5.51,0,10.54,1.86,15.08,5.58,4.54,3.72,6.82,8.88,6.82,15.49s-2.07,12.39-6.2,16.53c-4.13,4.13-9.37,6.2-15.7,6.2Z"/></g></g></svg>