<?xml version="1.0" encoding="UTF-8"?><svg xmlns="http://www.w3.org/2000/svg" viewBox="0 0 124.84 328.41"><defs><style>.d{fill:#97244c;}</style></defs><g id="a"/><g id="b"><g id="c"><path class="d" d="M47,185.65c-1.37-9.2-.88-17.38,1.47-24.53,2.35-7.15,5.63-13.61,9.84-19.39,4.21-5.77,8.52-11.31,12.92-16.6,4.41-5.29,8.17-10.57,11.31-15.86,3.13-5.29,4.7-11.06,4.7-17.33,0-5.29-1.08-10.08-3.23-14.39-2.16-4.31-5.34-7.73-9.55-10.28-4.21-2.54-9.45-3.82-15.72-3.82s-12.53,1.52-18.21,4.55c-5.68,3.04-10.87,7.2-15.57,12.48l-13.81-12.63c6.27-7.05,13.56-12.88,21.88-17.48,8.32-4.6,17.87-6.9,28.64-6.9,9.79,0,18.41,1.91,25.85,5.73,7.44,3.82,13.17,9.21,17.18,16.16,4.01,6.95,6.02,15.33,6.02,25.12,0,7.64-1.57,14.54-4.7,20.71-3.14,6.17-7,12.04-11.6,17.62-4.6,5.58-9.06,11.16-13.37,16.74-4.31,5.58-7.74,11.6-10.28,18.07-2.55,6.46-3.43,13.81-2.64,22.03h-21.15Zm11.16,61.69c-4.9,0-9.01-1.72-12.34-5.14-3.33-3.43-4.99-7.79-4.99-13.07,0-5.68,1.66-10.23,4.99-13.66,3.33-3.42,7.44-5.14,12.34-5.14s9.06,1.72,12.48,5.14c3.42,3.43,5.14,7.98,5.14,13.66,0,5.29-1.72,9.65-5.14,13.07-3.43,3.42-7.59,5.14-12.48,5.14Z"/></g></g></svg>