<?xml version="1.0" encoding="UTF-8"?><svg xmlns="http://www.w3.org/2000/svg" viewBox="0 0 50.36 51.25"><defs><style>.d{fill:#97244c;}</style></defs><g id="a"/><g id="b"><g id="c"><g><path class="d" d="M21.82,43.65C9.79,43.65,0,33.86,0,21.83,0,9.8,9.8,0,21.83,0c12.03,0,21.83,9.79,21.83,21.83,0,12.03-9.8,21.82-21.83,21.82h0Zm0-41.34c-10.76,0-19.52,8.76-19.52,19.53,0,10.76,8.76,19.51,19.52,19.51s19.53-8.76,19.53-19.52c0-10.76-8.76-19.52-19.52-19.52h0Z"/><path class="d" d="M8.9,21.82h-2.3c0-8.4,6.83-15.23,15.23-15.23v2.3c-7.12,0-12.92,5.8-12.92,12.92h0Z"/><path class="d" d="M49.21,51.25c-.29,0-.59-.11-.81-.34l-12.84-12.83c-.45-.45-.45-1.18,0-1.63s1.18-.45,1.63,0l12.83,12.83c.45,.45,.45,1.18,0,1.63-.22,.23-.52,.34-.81,.34h0Z"/></g></g></g></svg>